<svg width="486" height="277" viewBox="0 0 486 277" fill="none" xmlns="http://www.w3.org/2000/svg">
<path d="M292.225 20.5V40.975H278.087H263.95V22.45V3.92496H242.5H221.05L220.855 22.1575L220.562 40.4875L207.692 40.78L194.725 41.0725V21.475V1.97495H172.3H149.875V56.185V110.395L153.677 114.977C162.647 125.702 168.79 138.085 171.91 151.832C174.445 162.752 174.445 184.69 171.91 192.1C166.742 207.017 155.92 212.672 146.95 205.067C140.417 199.607 137.395 189.955 134.762 166.75C128.815 113.807 112.825 90.4075 78.6025 84.9475C48.67 80.0725 24.88 92.26 11.23 119.462C7.91498 125.897 3.23498 141.01 1.57748 150.175C-0.470022 161.192 -0.177522 192.295 2.06498 203.215C4.40498 215.305 8.01248 226.322 12.6925 235.487C16.5925 243.287 23.32 253.915 24.9775 254.89C25.465 255.28 34.3375 248.845 44.77 240.752C55.105 232.562 63.685 225.835 63.88 225.737C64.075 225.542 62.8075 223.495 61.15 220.96C48.865 202.825 45.355 165.677 54.52 151.735C58.615 145.397 65.5375 143.545 72.46 146.86C78.7975 149.882 81.625 157.682 84.0625 178.45C89.425 223.495 103.172 250.697 126.67 262.3C137.492 267.565 146.755 269.417 159.137 268.832C180.295 267.76 197.162 258.4 208.375 241.63L212.275 235.78V256.352V276.925H242.987H273.7V256.352V235.78L277.6 241.63C288.812 258.4 305.68 267.76 326.837 268.832C339.22 269.417 348.482 267.565 359.305 262.3C382.802 250.697 396.55 223.495 401.912 178.45C404.35 157.682 407.177 149.882 413.515 146.86C420.438 143.545 427.36 145.397 431.455 151.735C440.62 165.677 437.11 202.825 424.825 220.96C423.167 223.495 421.9 225.542 422.095 225.737C422.29 225.835 430.87 232.562 441.205 240.752C451.637 248.845 460.51 255.28 460.997 254.89C462.655 253.915 469.382 243.287 473.282 235.487C477.962 226.322 481.57 215.305 483.91 203.215C486.152 192.295 486.445 161.192 484.397 150.175C476.89 108.055 453.587 83.9725 420.438 83.875C405.715 83.875 392.747 87.385 382.607 94.3075C364.765 106.3 355.6 127.555 351.212 166.75C349.262 183.91 347.605 191.612 344.485 197.852C336.197 214.135 320.695 211.21 314.065 192.1C311.53 184.69 311.53 162.752 314.065 151.832C317.185 138.085 323.327 125.702 332.297 114.977L336.1 110.395V55.21V0.0249634H314.162H292.225V20.5Z" fill="#FF005C"/>
</svg>
